<svg xmlns="http://www.w3.org/2000/svg" viewBox="0 0 100 100">
  <!-- Pointy ears -->
  <polygon points="14,52 24,16 40,42" fill="#08224f"/>
  <polygon points="60,42 76,16 86,52" fill="#08224f"/>
  <!-- Inner ear glow -->
  <polygon points="18,49 24,24 36,42" fill="#1060d0"/>
  <polygon points="64,42 76,24 82,49" fill="#1060d0"/>
  <!-- Head -->
  <ellipse cx="50" cy="60" rx="33" ry="29" fill="#1060d0"/>
  <!-- Cheek fluff -->
  <ellipse cx="20" cy="65" rx="11" ry="9" fill="#1060d0"/>
  <ellipse cx="80" cy="65" rx="11" ry="9" fill="#1060d0"/>
  <!-- Face mask (lighter) -->
  <ellipse cx="50" cy="70" rx="21" ry="17" fill="#5090f0"/>
  <!-- Eyes -->
  <ellipse cx="37" cy="54" rx="6.5" ry="7.5" fill="#08224f"/>
  <ellipse cx="63" cy="54" rx="6.5" ry="7.5" fill="#08224f"/>
  <!-- Pupils -->
  <ellipse cx="38" cy="55" rx="3.5" ry="5" fill="#1060d0"/>
  <ellipse cx="64" cy="55" rx="3.5" ry="5" fill="#1060d0"/>
  <!-- Eye shine -->
  <circle cx="39.5" cy="51.5" r="2.2" fill="white" opacity="0.85"/>
  <circle cx="65.5" cy="51.5" r="2.2" fill="white" opacity="0.85"/>
  <!-- Nose -->
  <ellipse cx="50" cy="71" rx="5" ry="4" fill="#08224f"/>
  <circle cx="48.5" cy="71" r="1.5" fill="#1a4080"/>
  <circle cx="51.5" cy="71" r="1.5" fill="#1a4080"/>
  <!-- Mouth -->
  <path d="M44,76 Q50,82 56,76" fill="none" stroke="#08224f"
        stroke-width="2.2" stroke-linecap="round"/>
  <!-- Whiskers -->
  <line x1="12" y1="64" x2="34" y2="69" stroke="#a8c8ff" stroke-width="1.2" opacity="0.55"/>
  <line x1="12" y1="69" x2="34" y2="71" stroke="#a8c8ff" stroke-width="1.2" opacity="0.55"/>
  <line x1="66" y1="69" x2="88" y2="64" stroke="#a8c8ff" stroke-width="1.2" opacity="0.55"/>
  <line x1="66" y1="71" x2="88" y2="69" stroke="#a8c8ff" stroke-width="1.2" opacity="0.55"/>
</svg>
